<svg width="32" height="32" viewBox="0 0 32 32" fill="none" xmlns="http://www.w3.org/2000/svg">
  <!-- Background circle -->
  <circle cx="16" cy="16" r="16" fill="#059669"/>
  
  <!-- Fadi "F" letter -->
  <path d="M8 6h12v3H11v4h7v3H11v6H8V6z" fill="white"/>
  
  <!-- Tools icon (wrench) -->
  <path d="M20 8c0-1.1.9-2 2-2s2 .9 2 2c0 .8-.5 1.5-1.2 1.8L22 12l-1.2-2.2C20.5 9.5 20 8.8 20 8z" fill="white"/>
  <path d="M22 10c-.6 0-1-.4-1-1s.4-1 1-1 1 .4 1 1-.4 1-1 1z" fill="#059669"/>
  
  <!-- SEO elements (magnifying glass) -->
  <circle cx="24" cy="24" r="3" stroke="white" stroke-width="1.5" fill="none"/>
  <path d="M26.5 26.5l2 2" stroke="white" stroke-width="1.5" stroke-linecap="round"/>
  
  <!-- Small gear icon -->
  <circle cx="6" cy="26" r="2" fill="white"/>
  <circle cx="6" cy="26" r="1" fill="#059669"/>
</svg>
